<?xml version="1.0" encoding="UTF-8"?>
<svg xmlns="http://www.w3.org/2000/svg" xmlns:xlink="http://www.w3.org/1999/xlink" width="460.725pt" height="501.3pt" viewBox="0 0 460.725 501.3" version="1.1">
<g id="surface1">
<path style=" stroke:none;fill-rule:nonzero;fill:rgb(0%,0%,0%);fill-opacity:1;" d="M 300.140625 283.441406 C 299.480469 378.644531 173.839844 436.425781 100.394531 376.058594 C 58.230469 341.410156 66.898438 271.839844 93.921875 230.65625 C 125.496094 182.535156 181.65625 154.769531 238.589844 170.101562 C 264.683594 177.128906 294.9375 192.535156 309.359375 216.511719 C 325.074219 242.65625 303.128906 257.527344 300.140625 283.441406 Z M 300.140625 283.441406 "/>
<path style=" stroke:none;fill-rule:nonzero;fill:rgb(0%,0%,0%);fill-opacity:1;" d="M 203.429688 314.761719 C 203.429688 340.117188 182.875 360.675781 157.515625 360.675781 C 132.15625 360.675781 111.601562 340.117188 111.601562 314.761719 C 111.601562 289.402344 132.15625 268.84375 157.515625 268.84375 C 182.875 268.84375 203.429688 289.402344 203.429688 314.761719 "/>
<path style=" stroke:none;fill-rule:nonzero;fill:rgb(0%,0%,0%);fill-opacity:1;" d="M 39.398438 112.425781 C 40.320312 111.742188 40.402344 109.996094 40.066406 108.765625 C 38.09375 101.574219 19.945312 105.4375 13.792969 95.460938 C 12.121094 92.753906 11.144531 88.710938 12.796875 86.484375 C 16.292969 81.765625 30.339844 86.867188 31.089844 87.152344 C 42.023438 91.226562 44.3125 97.277344 51.378906 96.460938 C 52.089844 96.378906 57.289062 95.710938 60.027344 91.804688 C 63.402344 86.988281 60.238281 81.238281 63.351562 79.167969 C 65.332031 77.855469 68.722656 78.777344 70.664062 80.164062 C 73.6875 82.324219 73.28125 85.660156 75.980469 86.480469 C 77.34375 86.894531 79.226562 86.585938 80.300781 85.484375 C 82.257812 83.46875 79.933594 80.445312 81.628906 75.507812 C 82.003906 74.421875 82.941406 71.691406 84.621094 71.519531 C 86.546875 71.316406 88.160156 74.59375 88.28125 74.84375 C 89.789062 77.992188 86.660156 80.296875 87.953125 83.152344 C 88.695312 84.800781 90.59375 86.21875 91.613281 85.816406 C 93.726562 84.96875 90.332031 76.957031 94.277344 73.179688 C 95.320312 72.183594 97.066406 71.289062 97.9375 71.851562 C 99.941406 73.132812 95.222656 80.695312 98.265625 84.160156 C 99.34375 85.390625 101.519531 86.230469 102.585938 85.488281 C 105.472656 83.5 96.570312 72.6875 99.59375 60.550781 C 99.9375 59.179688 101.980469 50.964844 107.902344 49.578125 C 112.167969 48.582031 117.953125 51.234375 119.210938 55.234375 C 121.484375 62.433594 107.488281 68.980469 109.566406 78.175781 C 110.234375 81.128906 112.476562 83.996094 115.222656 84.828125 C 121.171875 86.628906 128.511719 78.535156 131.851562 74.851562 C 139.351562 66.578125 140.507812 60.105469 144.488281 60.21875 C 147.269531 60.300781 149.917969 63.542969 150.472656 66.535156 C 151.785156 73.613281 141.707031 81.03125 140.160156 82.164062 C 135.984375 85.238281 132.710938 86.101562 130.183594 90.472656 C 129.964844 90.847656 127.527344 95.136719 128.855469 96.457031 C 129.832031 97.425781 132.5 96.464844 134.171875 95.460938 C 135.335938 94.761719 136.070312 93.96875 136.601562 93.359375 C 140.058594 89.398438 139.878906 87.546875 141.820312 85.8125 C 144.8125 83.148438 150.191406 83.15625 151.128906 84.816406 C 151.820312 86.039062 151.414062 90.105469 147.804688 91.132812 C 140.820312 93.128906 135.167969 99.441406 139.15625 100.109375 C 144.382812 100.980469 158.109375 90.464844 158.109375 90.464844 C 181.703125 77.03125 188.371094 72.742188 191.363281 75.164062 C 193.605469 76.988281 192.992188 81.964844 191.691406 85.140625 C 188.578125 92.761719 180.328125 92.957031 163.09375 103.761719 C 154.453125 109.183594 152.699219 111.539062 153.117188 113.070312 C 153.394531 114.082031 154.753906 115.191406 159.769531 115.734375 C 177.535156 117.632812 190.917969 106.960938 193.691406 110.078125 C 195.386719 111.992188 192.980469 118.816406 189.035156 122.046875 C 179.832031 129.59375 175.128906 129.960938 154.78125 141.667969 C 148.070312 145.53125 145.554688 147.5625 139.480469 149.648438 C 131.644531 152.347656 129.574219 151.117188 125.515625 153.96875 C 118.390625 158.980469 121.414062 165.128906 114.875 169.269531 C 109.675781 172.5625 106.460938 169.503906 96.921875 173.925781 C 92.28125 176.078125 90.464844 178 89.9375 178.582031 C 86.449219 182.4375 86.136719 186.667969 85.28125 190.890625 C 84.914062 192.699219 81.394531 209.167969 70.320312 218.492188 C 65.21875 222.78125 64.46875 220.480469 60.34375 224.148438 C 47.316406 235.714844 55.6875 257.898438 45.710938 262.390625 C 44.097656 263.117188 41.136719 263.769531 39.394531 262.390625 C 34.773438 258.722656 43.894531 244.816406 42.71875 223.480469 C 42.5625 220.570312 42.050781 212.359375 39.394531 211.839844 C 35.128906 211.015625 30.363281 231.03125 22.4375 230.792969 C 20.113281 230.726562 17.457031 228.910156 16.453125 226.472656 C 12.679688 217.316406 35.457031 207.316406 35.074219 189.558594 C 34.917969 182.464844 34.460938 178.921875 32.105469 179.074219 C 27.523438 179.359375 26.046875 201.394531 16.78125 204.191406 C 12.289062 205.550781 5.164062 201.714844 4.144531 196.878906 C 1.738281 185.472656 32.75 167.027344 36.730469 156.273438 C 36.964844 155.636719 33.40625 153.648438 29.746094 156.273438 C 25.484375 159.332031 19.472656 162.070312 12.449219 160.632812 C 7.433594 159.605469 3.140625 151.664062 5.136719 147.996094 C 7.941406 142.835938 21.410156 149.480469 37.0625 141.679688 C 38.832031 140.792969 44.464844 137.988281 44.046875 135.695312 C 43.523438 132.816406 33.6875 131.898438 20.105469 130.707031 C 9.582031 129.785156 5.171875 129.980469 4.804688 128.382812 C 4.363281 126.433594 10.023438 122.242188 16.445312 121.070312 C 25.484375 119.421875 30.492188 124.773438 40.386719 122.066406 C 43.019531 121.347656 45.480469 120.199219 45.375 119.402344 C 45.089844 117.332031 29.585938 117.730469 24.425781 114.414062 C 22.296875 113.042969 24.027344 108.75 25.753906 107.761719 C 29.355469 105.710938 36.726562 114.390625 39.398438 112.425781 Z M 39.398438 112.425781 "/>
<path style=" stroke:none;fill-rule:nonzero;fill:rgb(0%,0%,0%);fill-opacity:1;" d="M 107.234375 96.128906 C 105.367188 95.910156 91.199219 94.515625 83.292969 105.773438 C 77.996094 113.320312 78.15625 122.777344 81.296875 129.382812 C 82.070312 131.011719 85.28125 137.761719 90.941406 138.691406 C 92.367188 138.925781 94.550781 138.519531 98.921875 137.695312 C 103.054688 136.914062 105.140625 136.511719 105.90625 135.699219 C 108.246094 133.210938 105.53125 130.113281 107.570312 124.058594 C 108.09375 122.507812 109.054688 119.777344 111.558594 117.742188 C 114.191406 115.605469 115.804688 116.460938 117.875 114.75 C 120.898438 112.253906 121.96875 106.726562 120.199219 102.78125 C 117.765625 97.359375 110.664062 96.523438 107.234375 96.128906 Z M 107.234375 96.128906 "/>
<path style=" stroke:none;fill-rule:nonzero;fill:rgb(0%,0%,0%);fill-opacity:1;" d="M 272.503906 420.359375 C 268.746094 414.328125 245.089844 426.3125 240.914062 420.03125 C 239.488281 417.886719 240.742188 414.226562 242.242188 412.050781 C 248.648438 402.78125 265.035156 412.679688 280.484375 403.742188 C 287.984375 399.398438 292.476562 392.238281 297.78125 383.792969 C 304.53125 373.03125 304.679688 367.449219 311.085938 364.171875 C 319.570312 359.828125 329.976562 364.1875 330.707031 364.5 C 341.109375 369.015625 343.726562 378.929688 351.992188 378.464844 C 354.511719 378.324219 356.078125 377.300781 358.976562 378.136719 C 362.042969 379.015625 365.398438 381.625 366.625 385.121094 C 369.324219 392.816406 360.070312 400.167969 362.964844 404.074219 C 363.917969 405.355469 366.039062 405.484375 370.277344 405.738281 C 379.140625 406.269531 381.4375 403.8125 384.910156 405.410156 C 390.242188 407.855469 392.800781 417.289062 389.898438 420.710938 C 388.234375 422.675781 385.871094 421.339844 380.253906 422.707031 C 378.011719 423.246094 369.632812 425.28125 367.285156 430.355469 C 364.261719 436.878906 373.929688 442.542969 371.605469 449.976562 C 369.324219 457.265625 357.484375 459.9375 352.984375 460.949219 C 341.613281 463.515625 338.863281 459.335938 333.695312 462.613281 C 325.289062 467.9375 330.28125 480.472656 320.390625 488.21875 C 317.511719 490.476562 311.789062 493.558594 308.082031 491.542969 C 301.835938 488.136719 305.980469 472.746094 300.769531 470.925781 C 297.898438 469.921875 295.804688 474.300781 289.460938 474.25 C 288.277344 474.242188 283.527344 474.203125 281.152344 471.257812 C 277.042969 466.171875 287.917969 459.421875 280.824219 454.960938 C 275.003906 451.300781 275.003906 452.75 265.523438 462.273438 C 262.058594 465.761719 258.257812 466.007812 257.214844 465.597656 C 252.476562 463.730469 253.511719 450.335938 255.550781 442.316406 C 256.816406 437.351562 257.988281 432.761719 261.867188 430.675781 C 265.289062 428.847656 268.390625 430.25 270.84375 427.683594 C 272.566406 425.871094 273.742188 422.339844 272.503906 420.359375 Z M 272.503906 420.359375 "/>
<path style=" stroke:none;fill-rule:nonzero;fill:rgb(0%,0%,0%);fill-opacity:1;" d="M 355.1875 408.148438 C 360.964844 422.761719 359.3125 437.113281 351.5 440.203125 C 343.683594 443.292969 332.664062 433.953125 326.882812 419.339844 C 321.105469 404.726562 322.757812 390.375 330.574219 387.285156 C 338.386719 384.191406 349.40625 393.535156 355.1875 408.148438 "/>
<path style=" stroke:none;fill-rule:nonzero;fill:rgb(0%,0%,0%);fill-opacity:1;" d="M 286.46875 66.203125 C 292.527344 64.613281 293.292969 65.371094 295.445312 63.878906 C 302 59.320312 299.171875 49.328125 302.097656 41.265625 C 304.183594 35.5 308.945312 31.46875 314.683594 28.476562 C 321.125 25.117188 328.8125 23.0625 335.355469 21.3125 C 337.359375 20.78125 345.683594 15.183594 363.570312 17.21875 C 372.488281 18.230469 383.78125 21.140625 397.859375 27.523438 C 403.167969 29.929688 408.800781 30.195312 413.8125 30.457031 C 420.996094 30.832031 426.90625 31.183594 428.738281 37.828125 C 430.5625 44.441406 428.160156 56.847656 431.796875 69.199219 C 434.09375 76.984375 443.085938 83.800781 443.503906 92.113281 C 443.847656 98.984375 443.210938 105.808594 441.027344 112.191406 C 440.253906 114.433594 439.292969 116.625 438.117188 118.746094 C 436.601562 121.476562 432.882812 122.367188 428.921875 127.648438 C 426.363281 131.0625 433.691406 141.921875 431.464844 150.664062 C 429.574219 158.089844 428.089844 158.585938 427.144531 172.089844 C 426.722656 178.023438 438.792969 181.871094 431.800781 196.816406 C 422.328125 217.058594 419.898438 223.824219 414.175781 227.144531 C 407.34375 231.121094 400.339844 222.808594 381.589844 226.148438 C 375.484375 227.234375 372.132812 228.847656 367.289062 227.144531 C 361.242188 225.023438 356.355469 218.953125 354.652344 212.511719 C 352.058594 202.710938 358.515625 198.398438 354.980469 190.898438 C 351.785156 184.109375 343.617188 181.53125 341.675781 180.921875 C 334.769531 178.738281 332.714844 181.460938 327.042969 179.925781 C 318.777344 177.683594 314.414062 169.539062 308.75 158.976562 C 305.464844 152.847656 302.988281 144.875 299.773438 134.367188 C 294.570312 117.355469 302.726562 112.085938 297.109375 105.441406 C 293.171875 100.777344 288.371094 103.035156 282.476562 97.792969 C 276.492188 92.476562 283.542969 88.019531 276.820312 87.152344 C 266.507812 85.824219 267.871094 79.1875 268.171875 76.179688 C 268.71875 70.859375 281.78125 67.433594 286.46875 66.203125 Z M 286.46875 66.203125 "/>
<path style=" stroke:none;fill-rule:nonzero;fill:rgb(0%,0%,0%);fill-opacity:1;" d="M 365.648438 123.886719 C 365.648438 139.304688 358.121094 151.808594 348.839844 151.808594 C 339.558594 151.808594 332.03125 139.304688 332.03125 123.886719 C 332.03125 108.464844 339.558594 95.960938 348.839844 95.960938 C 358.121094 95.960938 365.648438 108.464844 365.648438 123.886719 "/>
<path style=" stroke:none;fill-rule:nonzero;fill:rgb(0%,0%,0%);fill-opacity:1;" d="M 90.390625 268.460938 C 87.152344 266.128906 83.902344 263.804688 80.664062 261.472656 C 79.847656 260.878906 79.023438 260.296875 78.203125 259.703125 C 77.984375 259.546875 77.46875 259.296875 77.386719 259.058594 C 77.222656 258.59375 77.574219 257.777344 77.574219 257.28125 C 77.566406 255.265625 76.472656 253.484375 74.988281 252.21875 C 74.191406 251.542969 73.054688 251.09375 72.027344 250.929688 C 70.960938 250.757812 69.996094 250.960938 68.960938 251.167969 C 71.195312 251.738281 72.761719 253.921875 72.289062 256.261719 C 71.832031 258.511719 69.429688 260.011719 67.210938 259.5625 C 66.019531 259.324219 65.035156 258.519531 64.390625 257.53125 C 64.53125 258.6875 64.675781 259.820312 65.34375 260.816406 C 66.070312 261.902344 66.84375 262.683594 68.015625 263.269531 C 69.027344 263.773438 70.167969 264.167969 71.324219 264.027344 C 71.886719 263.960938 72.539062 263.90625 73.078125 263.726562 C 73.394531 263.621094 73.707031 263.410156 74.007812 263.261719 C 74.195312 263.164062 74.644531 262.820312 74.855469 262.835938 C 74.960938 262.84375 75.191406 263.074219 75.277344 263.136719 C 75.601562 263.371094 75.914062 263.59375 76.238281 263.828125 C 76.839844 264.261719 77.445312 264.691406 78.046875 265.125 C 79.074219 265.867188 80.109375 266.601562 81.136719 267.34375 C 83.125 268.777344 85.113281 270.203125 87.105469 271.632812 C 88.132812 272.375 89.304688 272.960938 90.457031 272.066406 C 91.058594 271.601562 91.371094 270.925781 91.328125 270.167969 C 91.246094 269.414062 90.878906 268.988281 90.390625 268.460938 Z M 90.390625 268.460938 "/>
<path style=" stroke:none;fill-rule:nonzero;fill:rgb(0%,0%,0%);fill-opacity:1;" d="M 273.703125 393.636719 C 274.191406 392.414062 273.851562 390.597656 272.71875 388.996094 C 271.21875 386.851562 268.878906 385.90625 267.492188 386.875 C 266.105469 387.84375 266.203125 390.371094 267.710938 392.515625 C 268.835938 394.121094 270.433594 395.058594 271.746094 395.011719 C 271.257812 396.234375 271.597656 398.050781 272.730469 399.652344 C 273.953125 401.390625 275.730469 402.34375 277.09375 402.121094 L 282.996094 410.527344 C 283.28125 410.933594 283.851562 411.039062 284.257812 410.753906 C 284.664062 410.46875 284.769531 409.898438 284.484375 409.492188 L 278.582031 401.085938 C 279.257812 399.878906 278.964844 397.882812 277.742188 396.144531 C 276.609375 394.53125 275.015625 393.601562 273.703125 393.636719 Z M 273.703125 393.636719 "/>
<path style=" stroke:none;fill-rule:nonzero;fill:rgb(0%,0%,0%);fill-opacity:1;" d="M 127.492188 169.441406 C 126.945312 170.632812 127.191406 172.472656 128.242188 174.128906 C 129.636719 176.339844 131.933594 177.40625 133.355469 176.507812 C 134.789062 175.609375 134.808594 173.082031 133.414062 170.867188 C 132.371094 169.210938 130.820312 168.195312 129.507812 168.175781 C 130.054688 166.984375 129.808594 165.144531 128.757812 163.488281 C 127.625 161.6875 125.894531 160.644531 124.519531 160.8125 L 119.035156 152.121094 C 118.773438 151.699219 118.203125 151.574219 117.78125 151.835938 C 117.359375 152.097656 117.234375 152.667969 117.496094 153.089844 L 122.980469 161.78125 C 122.246094 162.953125 122.441406 164.960938 123.574219 166.761719 C 124.636719 168.40625 126.179688 169.417969 127.492188 169.441406 Z M 127.492188 169.441406 "/>
<path style=" stroke:none;fill-rule:nonzero;fill:rgb(0%,0%,0%);fill-opacity:1;" d="M 296.773438 369.390625 C 297.261719 368.167969 296.921875 366.351562 295.789062 364.75 C 294.289062 362.605469 291.949219 361.660156 290.5625 362.628906 C 289.183594 363.597656 289.273438 366.125 290.78125 368.269531 C 291.90625 369.875 293.503906 370.8125 294.816406 370.765625 C 294.328125 371.988281 294.667969 373.804688 295.800781 375.40625 C 297.023438 377.144531 298.800781 378.097656 300.164062 377.875 L 306.066406 386.28125 C 306.351562 386.6875 306.921875 386.792969 307.328125 386.507812 C 307.734375 386.222656 307.839844 385.652344 307.554688 385.246094 L 301.652344 376.839844 C 302.328125 375.632812 302.035156 373.636719 300.8125 371.898438 C 299.683594 370.289062 298.085938 369.351562 296.773438 369.390625 Z M 296.773438 369.390625 "/>
<path style=" stroke:none;fill-rule:nonzero;fill:rgb(0%,0%,0%);fill-opacity:1;" d="M 332.84375 191.851562 C 331.53125 191.917969 330.015625 192.976562 329.027344 194.671875 C 327.699219 196.929688 327.8125 199.449219 329.265625 200.304688 C 330.71875 201.160156 332.976562 200.027344 334.304688 197.769531 C 335.292969 196.082031 335.480469 194.238281 334.90625 193.066406 C 336.21875 193 337.734375 191.941406 338.722656 190.246094 C 339.800781 188.410156 339.929688 186.398438 339.15625 185.25 L 344.355469 176.390625 C 344.609375 175.964844 344.460938 175.402344 344.03125 175.152344 C 343.605469 174.898438 343.042969 175.046875 342.792969 175.476562 L 337.59375 184.335938 C 336.214844 184.222656 334.519531 185.3125 333.445312 187.148438 C 332.453125 188.835938 332.257812 190.671875 332.84375 191.851562 Z M 332.84375 191.851562 "/>
<path style=" stroke:none;fill-rule:nonzero;fill:rgb(0%,0%,0%);fill-opacity:1;" d="M 312.945312 182.183594 C 311.648438 181.996094 309.953125 182.746094 308.65625 184.214844 C 306.921875 186.171875 306.542969 188.667969 307.808594 189.792969 C 309.074219 190.910156 311.507812 190.226562 313.238281 188.269531 C 314.535156 186.800781 315.074219 185.03125 314.730469 183.769531 C 316.027344 183.957031 317.722656 183.207031 319.019531 181.738281 C 320.429688 180.140625 320.945312 178.199219 320.40625 176.921875 L 327.207031 169.226562 C 327.535156 168.851562 327.5 168.273438 327.132812 167.945312 C 326.757812 167.617188 326.179688 167.652344 325.851562 168.019531 L 319.050781 175.714844 C 317.722656 175.339844 315.847656 176.082031 314.4375 177.679688 C 313.140625 179.144531 312.601562 180.914062 312.945312 182.183594 Z M 312.945312 182.183594 "/>
<path style=" stroke:none;fill-rule:nonzero;fill:rgb(0%,0%,0%);fill-opacity:1;" d="M 142.449219 161.339844 C 141.773438 162.464844 141.820312 164.316406 142.675781 166.078125 C 143.816406 168.433594 145.976562 169.746094 147.5 169.003906 C 149.023438 168.269531 149.328125 165.757812 148.183594 163.402344 C 147.328125 161.640625 145.902344 160.460938 144.597656 160.289062 C 145.273438 159.164062 145.226562 157.3125 144.371094 155.550781 C 143.441406 153.636719 141.84375 152.414062 140.457031 152.414062 L 135.972656 143.175781 C 135.753906 142.726562 135.207031 142.539062 134.757812 142.753906 C 134.308594 142.972656 134.121094 143.519531 134.335938 143.96875 L 138.820312 153.207031 C 137.957031 154.285156 137.929688 156.304688 138.859375 158.21875 C 139.726562 159.988281 141.148438 161.167969 142.449219 161.339844 Z M 142.449219 161.339844 "/>
<path style=" stroke:none;fill-rule:nonzero;fill:rgb(0%,0%,0%);fill-opacity:1;" d="M 109.074219 229.253906 C 105.835938 226.921875 102.585938 224.597656 99.347656 222.265625 C 98.53125 221.671875 97.707031 221.089844 96.886719 220.496094 C 96.667969 220.339844 96.152344 220.089844 96.070312 219.851562 C 95.90625 219.386719 96.257812 218.570312 96.257812 218.074219 C 96.25 216.058594 95.15625 214.277344 93.671875 213.011719 C 92.875 212.335938 91.738281 211.886719 90.710938 211.722656 C 89.644531 211.550781 88.679688 211.753906 87.644531 211.960938 C 89.878906 212.53125 91.445312 214.714844 90.972656 217.054688 C 90.515625 219.304688 88.113281 220.804688 85.894531 220.355469 C 84.703125 220.117188 83.71875 219.3125 83.074219 218.324219 C 83.214844 219.480469 83.359375 220.613281 84.027344 221.609375 C 84.753906 222.695312 85.527344 223.476562 86.699219 224.0625 C 87.710938 224.566406 88.851562 224.960938 90.007812 224.820312 C 90.570312 224.753906 91.222656 224.699219 91.761719 224.519531 C 92.078125 224.414062 92.390625 224.203125 92.691406 224.054688 C 92.878906 223.957031 93.328125 223.613281 93.539062 223.628906 C 93.644531 223.636719 93.875 223.867188 93.960938 223.929688 C 94.285156 224.164062 94.597656 224.386719 94.921875 224.621094 C 95.523438 225.054688 96.128906 225.484375 96.730469 225.917969 C 97.757812 226.660156 98.792969 227.394531 99.820312 228.136719 C 101.808594 229.570312 103.796875 230.996094 105.789062 232.425781 C 106.816406 233.167969 107.988281 233.753906 109.140625 232.859375 C 109.742188 232.394531 110.054688 231.71875 110.011719 230.960938 C 109.925781 230.199219 109.550781 229.769531 109.074219 229.253906 Z M 109.074219 229.253906 "/>
<path style=" stroke:none;fill-rule:nonzero;fill:rgb(0%,0%,0%);fill-opacity:1;" d="M 101.191406 245.609375 C 97.953125 243.277344 94.703125 240.953125 91.464844 238.621094 C 90.648438 238.027344 89.824219 237.445312 89.003906 236.851562 C 88.785156 236.695312 88.269531 236.445312 88.1875 236.199219 C 88.023438 235.734375 88.375 234.917969 88.375 234.421875 C 88.367188 232.40625 87.273438 230.625 85.789062 229.359375 C 84.992188 228.683594 83.855469 228.234375 82.828125 228.070312 C 81.761719 227.898438 80.796875 228.101562 79.761719 228.308594 C 81.996094 228.878906 83.5625 231.0625 83.089844 233.402344 C 82.632812 235.652344 80.230469 237.152344 78.011719 236.703125 C 76.820312 236.464844 75.835938 235.660156 75.191406 234.671875 C 75.332031 235.828125 75.476562 236.960938 76.144531 237.957031 C 76.871094 239.042969 77.644531 239.824219 78.816406 240.410156 C 79.828125 240.914062 80.96875 241.308594 82.125 241.167969 C 82.6875 241.101562 83.339844 241.046875 83.878906 240.867188 C 84.195312 240.761719 84.507812 240.550781 84.808594 240.402344 C 84.996094 240.304688 85.445312 239.960938 85.65625 239.976562 C 85.761719 239.984375 85.992188 240.214844 86.078125 240.277344 C 86.402344 240.511719 86.714844 240.734375 87.039062 240.96875 C 87.640625 241.402344 88.246094 241.832031 88.847656 242.265625 C 89.875 243.007812 90.910156 243.742188 91.9375 244.484375 C 93.925781 245.917969 95.914062 247.34375 97.90625 248.773438 C 98.933594 249.515625 100.105469 250.101562 101.257812 249.207031 C 101.859375 248.742188 102.171875 248.066406 102.128906 247.308594 C 102.046875 246.5625 101.675781 246.136719 101.191406 245.609375 Z M 101.191406 245.609375 "/>
<path style=" stroke:none;fill-rule:nonzero;fill:rgb(0%,0%,0%);fill-opacity:1;" d="M 119.273438 190.273438 L 131.730469 208.167969 C 132.203125 208.84375 133.140625 209.007812 133.816406 208.542969 C 134.492188 208.070312 134.65625 207.132812 134.191406 206.457031 L 121.734375 188.5625 L 122.71875 187.878906 L 119.507812 183.265625 L 114.894531 186.476562 L 118.105469 191.089844 Z M 119.273438 190.273438 "/>
<path style=" stroke:none;fill-rule:nonzero;fill:rgb(0%,0%,0%);fill-opacity:1;" d="M 114.570312 194.820312 L 118.132812 192.242188 L 113.894531 186.390625 L 119.585938 182.265625 L 123.824219 188.117188 L 127.621094 185.371094 L 120.847656 175.75 L 116.136719 179.074219 C 116.121094 179.050781 116.121094 179.035156 116.105469 179.015625 L 105.996094 164.609375 C 105.246094 163.445312 103.679688 163.109375 102.507812 163.859375 C 101.34375 164.609375 101.007812 166.175781 101.757812 167.347656 L 111.867188 181.753906 C 111.917969 181.828125 111.980469 181.894531 112.039062 181.972656 L 107.675781 185.054688 Z M 114.570312 194.820312 "/>
<path style=" stroke:none;fill-rule:nonzero;fill:rgb(0%,0%,0%);fill-opacity:1;" d="M 66.984375 251.234375 C 66.339844 251.234375 65.738281 251.421875 65.222656 251.738281 C 63.796875 251.128906 61.839844 250.089844 60.003906 248.25 C 58.210938 246.457031 58.167969 245.542969 56.027344 243.351562 C 54.175781 241.453125 51.984375 239.847656 49.621094 239.660156 C 48.75 239.59375 47.484375 240.09375 47.242188 241.699219 C 46.867188 244.183594 52.09375 246.835938 52.671875 247.128906 C 55.320312 248.464844 56.363281 248.140625 58.785156 249.3125 C 61.101562 250.4375 62.753906 251.988281 63.855469 253.28125 C 63.667969 253.703125 63.5625 254.167969 63.5625 254.652344 C 63.5625 256.542969 65.09375 258.074219 66.984375 258.074219 C 68.875 258.074219 70.40625 256.542969 70.40625 254.652344 C 70.402344 252.773438 68.871094 251.234375 66.984375 251.234375 Z M 66.984375 251.234375 "/>
<path style=" stroke:none;fill-rule:nonzero;fill:rgb(0%,0%,0%);fill-opacity:1;" d="M 78.5625 228.636719 C 77.917969 228.636719 77.316406 228.824219 76.800781 229.140625 C 75.375 228.53125 73.417969 227.492188 71.582031 225.652344 C 69.789062 223.859375 69.746094 222.945312 67.605469 220.761719 C 65.761719 218.871094 63.570312 217.265625 61.207031 217.078125 C 60.335938 217.011719 59.078125 217.511719 58.828125 219.109375 C 58.453125 221.585938 63.671875 224.238281 64.257812 224.53125 C 66.898438 225.859375 67.941406 225.542969 70.363281 226.714844 C 72.679688 227.832031 74.324219 229.386719 75.425781 230.675781 C 75.238281 231.097656 75.132812 231.5625 75.132812 232.046875 C 75.132812 233.9375 76.664062 235.460938 78.546875 235.460938 C 80.429688 235.460938 81.960938 233.929688 81.960938 232.046875 C 81.976562 230.167969 80.445312 228.636719 78.5625 228.636719 Z M 78.5625 228.636719 "/>
<path style=" stroke:none;fill-rule:nonzero;fill:rgb(0%,0%,0%);fill-opacity:1;" d="M 85.738281 212.355469 C 85.117188 212.355469 84.546875 212.535156 84.050781 212.835938 C 82.6875 212.257812 80.816406 211.253906 79.054688 209.507812 C 77.335938 207.796875 77.300781 206.921875 75.253906 204.828125 C 73.484375 203.019531 71.390625 201.484375 69.132812 201.304688 C 68.300781 201.238281 67.09375 201.726562 66.859375 203.253906 C 66.5 205.625 71.496094 208.167969 72.050781 208.445312 C 74.578125 209.71875 75.574219 209.414062 77.894531 210.53125 C 80.113281 211.605469 81.683594 213.089844 82.738281 214.320312 C 82.558594 214.726562 82.460938 215.167969 82.460938 215.632812 C 82.460938 217.441406 83.921875 218.902344 85.730469 218.902344 C 87.539062 218.902344 89 217.441406 89 215.632812 C 89.011719 213.816406 87.546875 212.355469 85.738281 212.355469 Z M 85.738281 212.355469 "/>
<path style=" stroke:none;fill-rule:nonzero;fill:rgb(0%,0%,0%);fill-opacity:1;" d="M 134.925781 172.09375 C 135.992188 173.757812 136.320312 176.464844 134.414062 177.703125 C 132.492188 178.957031 130.199219 177.523438 129.082031 175.894531 C 128.933594 177.828125 130.371094 179.417969 131.363281 180.933594 C 132.25 182.292969 133.132812 183.648438 134.011719 185.007812 C 134.808594 186.230469 135.519531 187.753906 136.816406 188.519531 C 137.296875 188.796875 137.820312 188.992188 138.382812 189.015625 C 138.847656 189.03125 139.507812 188.589844 139.875 188.640625 C 140.332031 188.707031 140.640625 189.441406 140.992188 189.976562 C 141.613281 190.929688 144.007812 196.222656 145.710938 194.835938 C 146.707031 194.019531 145.570312 192.667969 145.097656 191.941406 C 144.078125 190.375 143.058594 188.804688 142.039062 187.238281 C 145.160156 185.355469 142.105469 181.582031 140.824219 179.609375 C 139.5625 177.683594 138.402344 175.625 137.027344 173.78125 C 136.460938 173.023438 135.816406 172.410156 134.925781 172.09375 Z M 134.925781 172.09375 "/>
<path style=" stroke:none;fill-rule:nonzero;fill:rgb(0%,0%,0%);fill-opacity:1;" d="M 149.675781 165.136719 C 150.703125 166.9375 150.71875 169.816406 148.542969 170.792969 C 146.59375 171.671875 144.484375 170.207031 143.570312 168.503906 C 143.285156 170.242188 144.449219 171.832031 145.25 173.289062 C 146.261719 175.125 147.273438 176.964844 148.296875 178.800781 C 149.105469 180.261719 149.925781 181.996094 151.792969 182.25 C 152.46875 182.347656 153.285156 181.84375 153.691406 182.070312 C 154.179688 182.339844 154.695312 183.894531 154.964844 184.371094 C 155.519531 185.382812 156.480469 188.261719 157.738281 188.683594 C 160.625 189.636719 158.234375 185.398438 157.828125 184.664062 C 157.378906 183.847656 155.554688 181.484375 155.765625 180.695312 C 155.847656 180.386719 156.703125 179.914062 156.90625 179.496094 C 157.234375 178.8125 157.257812 177.964844 157.109375 177.238281 C 156.960938 176.535156 156.597656 175.949219 156.261719 175.332031 C 155.234375 173.40625 154.148438 171.507812 153.089844 169.585938 C 152.234375 168.03125 151.425781 165.878906 149.675781 165.136719 Z M 149.675781 165.136719 "/>
<path style=" stroke:none;fill-rule:nonzero;fill:rgb(0%,0%,0%);fill-opacity:1;" d="M 312.246094 190.492188 C 310.984375 192.039062 308.464844 193.09375 306.734375 191.648438 C 305 190.199219 305.601562 187.53125 306.898438 186.023438 C 305.25 186.367188 304.28125 187.847656 303.269531 189.054688 C 301.917969 190.675781 300.5625 192.289062 299.210938 193.90625 C 298.117188 195.210938 296.707031 196.589844 297.019531 198.464844 C 297.140625 199.191406 297.980469 199.875 297.90625 200.355469 C 297.816406 200.917969 296.578125 201.9375 296.21875 202.371094 C 295.476562 203.257812 293.136719 205.191406 293.203125 206.519531 C 293.351562 209.558594 296.441406 205.800781 296.984375 205.148438 C 297.554688 204.464844 299.160156 201.839844 299.9375 201.789062 C 300.238281 201.765625 300.898438 202.34375 301.308594 202.402344 C 301.96875 202.492188 302.6875 202.304688 303.273438 202.003906 C 303.984375 201.636719 304.472656 201.066406 304.976562 200.472656 C 306.371094 198.859375 307.714844 197.203125 309.078125 195.566406 C 310.273438 194.152344 312.1875 192.464844 312.246094 190.492188 Z M 312.246094 190.492188 "/>
<path style=" stroke:none;fill-rule:nonzero;fill:rgb(0%,0%,0%);fill-opacity:1;" d="M 326.648438 204.660156 C 324.8125 205.621094 321.9375 205.546875 321.039062 203.339844 C 320.230469 201.359375 321.757812 199.296875 323.492188 198.449219 C 321.757812 198.105469 320.132812 199.214844 318.65625 199.972656 C 316.789062 200.925781 314.914062 201.878906 313.046875 202.832031 C 311.554688 203.589844 309.800781 204.355469 309.476562 206.207031 C 309.355469 206.875 309.828125 207.714844 309.597656 208.113281 C 309.3125 208.59375 307.746094 209.058594 307.25 209.304688 C 306.222656 209.828125 303.304688 210.691406 302.847656 211.9375 C 301.796875 214.789062 306.109375 212.546875 306.859375 212.164062 C 307.691406 211.742188 310.113281 209.996094 310.894531 210.230469 C 311.203125 210.320312 311.644531 211.199219 312.058594 211.414062 C 312.726562 211.765625 313.574219 211.820312 314.308594 211.691406 C 315.011719 211.5625 315.613281 211.21875 316.242188 210.910156 C 318.207031 209.949219 320.140625 208.921875 322.085938 207.933594 C 323.671875 207.113281 325.84375 206.378906 326.648438 204.660156 Z M 326.648438 204.660156 "/>
<path style=" stroke:none;fill-rule:nonzero;fill:rgb(0%,0%,0%);fill-opacity:1;" d="M 289.703125 367.476562 C 288.332031 366.027344 287.601562 363.398438 289.261719 361.867188 C 290.917969 360.335938 293.492188 361.273438 294.820312 362.746094 C 294.679688 360.984375 293.171875 359.722656 292.046875 358.507812 C 290.660156 357.007812 289.265625 355.5 287.875 354 C 286.765625 352.800781 285.609375 351.316406 283.796875 351.351562 C 283.152344 351.367188 282.167969 352.160156 281.808594 352.054688 C 281.292969 351.914062 280.457031 350.601562 280.105469 350.21875 C 279.214844 349.257812 277.839844 347.015625 276.492188 346.640625 C 274.941406 346.199219 274.851562 347.75 275.488281 348.71875 C 275.878906 349.304688 276.507812 349.820312 276.980469 350.339844 C 277.617188 351.03125 280.0625 352.933594 280.109375 353.804688 C 280.117188 353.976562 279.40625 354.78125 279.320312 355.027344 C 279.117188 355.648438 279.171875 356.332031 279.367188 356.953125 C 279.621094 357.777344 280.164062 358.386719 280.726562 359.007812 C 282.152344 360.597656 283.621094 362.136719 285.070312 363.703125 C 286.320312 365.054688 287.753906 367.164062 289.703125 367.476562 Z M 289.703125 367.476562 "/>
<path style=" stroke:none;fill-rule:nonzero;fill:rgb(0%,0%,0%);fill-opacity:1;" d="M 266.699219 391.386719 C 265.433594 389.746094 265.011719 386.902344 267.027344 385.632812 C 268.84375 384.492188 271.128906 385.648438 272.269531 387.199219 C 272.308594 385.4375 270.933594 384.027344 269.9375 382.699219 C 268.675781 381.019531 267.417969 379.347656 266.15625 377.667969 C 265.152344 376.332031 264.09375 374.734375 262.210938 374.734375 C 261.527344 374.734375 260.785156 375.34375 260.359375 375.183594 C 259.84375 374.988281 259.105469 373.519531 258.777344 373.074219 C 258.078125 372.152344 256.730469 369.429688 255.425781 369.195312 C 252.433594 368.65625 255.394531 372.519531 255.898438 373.183594 C 256.460938 373.925781 258.589844 376.011719 258.5 376.828125 C 258.460938 377.144531 257.675781 377.734375 257.539062 378.179688 C 257.304688 378.898438 257.402344 379.738281 257.660156 380.445312 C 257.90625 381.121094 258.351562 381.652344 258.761719 382.214844 C 260.050781 383.976562 261.386719 385.710938 262.699219 387.457031 C 263.761719 388.882812 264.863281 390.898438 266.699219 391.386719 Z M 266.699219 391.386719 "/>
</g>
</svg>
